<?xml version="1.0" standalone="no"?>
<!DOCTYPE svg PUBLIC "-//W3C//DTD SVG 20010904//EN"
 "http://www.w3.org/TR/2001/REC-SVG-20010904/DTD/svg10.dtd">
<svg version="1.0" xmlns="http://www.w3.org/2000/svg"
 width="500.000000pt" height="500.000000pt" viewBox="0 0 500.000000 500.000000"
 preserveAspectRatio="xMidYMid meet">

<g transform="translate(0.000000,500.000000) scale(0.100000,-0.100000)"
fill="#000000" stroke="none">
<path d="M2321 3895 c-170 -38 -265 -82 -406 -188 -139 -104 -257 -247 -315
-382 -30 -70 -60 -197 -60 -254 0 -178 119 -240 562 -296 l47 -6 3 -342 c4
-404 4 -403 105 -498 101 -94 221 -121 357 -79 53 17 79 33 129 80 100 93 101
97 105 502 l3 337 47 6 c375 48 494 90 542 192 71 149 -39 440 -245 648 -128
128 -285 221 -450 266 -105 28 -330 35 -424 14z m213 -71 l46 -7 0 -170 0
-171 -42 -43 c-23 -24 -46 -43 -51 -43 -5 0 -32 23 -59 50 l-50 50 -74 0 -74
0 0 143 0 144 39 11 c21 7 41 12 45 12 3 0 6 -45 6 -101 l0 -101 34 -34 c56
-56 131 -42 162 32 12 29 12 39 0 68 -18 42 -51 66 -93 66 -32 0 -33 1 -33 44
0 44 0 45 38 49 20 2 42 4 48 5 6 1 32 -1 58 -4z m157 -25 c89 -28 89 -29 68
-50 -25 -25 -24 -54 1 -79 44 -44 99 -9 91 58 -2 16 3 15 50 -9 113 -57 247
-169 308 -256 22 -33 22 -33 2 -33 -27 0 -61 -34 -61 -60 0 -24 34 -60 55 -60
9 0 28 12 42 26 28 28 28 28 63 -37 11 -20 16 -39 13 -43 -8 -8 -118 -8 -271
1 l-122 6 0 48 c0 45 -17 79 -40 79 -23 0 -40 -34 -40 -81 l0 -49 -35 0 c-53
0 -129 -42 -148 -82 -8 -18 -17 -42 -19 -53 -3 -17 -11 -20 -58 -20 l-55 0 -3
113 -3 113 56 53 c33 32 55 62 55 75 0 20 4 21 125 21 123 0 126 -1 148 -26
16 -19 36 -27 69 -31 42 -5 50 -3 78 25 23 24 30 39 30 70 0 101 -123 143
-181 61 l-20 -29 -120 0 -119 0 0 130 c0 72 2 130 4 130 1 0 18 -5 37 -11z
m-535 -296 c-9 -23 -40 -13 -61 19 -11 18 -36 38 -56 46 -33 12 -41 12 -73 -3
-85 -41 -86 -149 -2 -189 44 -21 77 -13 116 25 28 29 30 29 148 29 l120 0 61
-66 c66 -73 66 -72 54 -196 l-6 -68 -43 0 c-29 0 -44 4 -44 13 0 7 -8 29 -19
49 -11 22 -15 42 -10 50 19 29 9 79 -20 109 -24 23 -38 29 -74 29 -38 0 -49
-5 -71 -31 -37 -44 -36 -101 3 -140 19 -19 40 -29 58 -29 33 0 53 -16 53 -41
0 -14 -16 -17 -97 -23 -113 -8 -411 -50 -496 -70 -55 -13 -58 -13 -68 6 -7 12
-8 42 -4 74 l6 54 112 0 c83 -1 117 -4 131 -15 34 -26 82 -19 121 18 49 46 51
102 6 148 -23 22 -39 29 -69 29 -49 0 -99 -38 -104 -78 -3 -27 -4 -27 -85 -30
-46 -2 -83 0 -83 4 0 4 12 33 26 64 25 57 26 58 45 39 24 -24 51 -24 73 0 24
26 17 73 -11 86 -13 5 -23 12 -23 16 0 3 26 37 58 75 68 80 138 137 248 199
l79 45 3 -117 c1 -64 0 -123 -2 -130z m295 156 c18 -18 19 -23 6 -42 -17 -26
-43 -33 -62 -17 -19 16 -19 45 1 64 20 21 30 20 55 -5z m568 -103 c20 -24 10
-70 -17 -74 -46 -7 -69 40 -36 72 19 20 38 20 53 2z m-971 -80 c5 -25 -17 -46
-49 -46 -23 0 -30 6 -35 27 -6 20 -2 31 16 45 20 16 25 17 44 5 12 -8 22 -22
24 -31z m223 -186 c23 -13 25 -52 4 -70 -8 -7 -25 -10 -39 -6 -32 8 -40 42
-15 67 22 22 24 22 50 9z m-301 -39 c20 -38 -16 -76 -56 -61 -27 10 -34 29
-23 58 11 29 63 31 79 3z m1398 -106 c7 -25 12 -59 12 -76 0 -37 -17 -72 -31
-63 -22 13 -350 64 -486 76 -130 10 -143 13 -143 31 0 10 13 32 29 48 l29 29
289 0 289 0 12 -45z m-838 -300 l5 -150 25 0 c33 0 38 23 39 173 l1 122 25 0
25 0 0 -219 c0 -213 1 -220 20 -226 46 -15 50 3 50 226 l0 209 25 0 25 0 0
-445 c0 -385 -2 -450 -16 -485 -9 -22 -20 -40 -25 -40 -5 0 -9 95 -9 214 0
183 -2 215 -16 227 -11 9 -20 10 -32 2 -15 -9 -18 -40 -22 -242 -5 -218 -7
-234 -25 -247 -20 -15 -20 -12 -25 307 -4 282 -7 323 -21 332 -9 6 -23 8 -32
4 -13 -5 -15 -49 -18 -320 -2 -174 -6 -318 -9 -320 -3 -3 -14 -7 -25 -9 -20
-3 -20 3 -23 507 -1 281 0 516 3 523 3 7 15 12 27 10 22 -3 23 -7 28 -153z
m-132 -367 c-3 -505 -3 -513 -23 -513 -20 0 -20 8 -23 513 l-2 512 25 0 25 0
-2 -512z m-118 22 c0 -329 -3 -480 -11 -480 -5 0 -17 16 -25 35 -11 28 -14
113 -14 480 l0 445 25 0 25 0 0 -480z"/>
<path d="M1537 1933 c-13 -12 -7 -54 9 -60 23 -8 47 20 39 46 -6 20 -34 28
-48 14z"/>
<path d="M1707 1933 c-4 -3 -7 -17 -7 -29 0 -32 19 -35 189 -32 121 3 145 6
154 20 8 12 7 21 -2 32 -11 13 -39 16 -171 16 -86 0 -160 -3 -163 -7z"/>
<path d="M2884 1926 c-11 -28 1 -51 25 -51 32 0 49 28 32 49 -17 20 -50 21
-57 2z"/>
<path d="M3053 1933 c-7 -2 -13 -13 -13 -23 0 -34 23 -41 140 -38 91 2 115 6
123 19 6 9 7 24 4 33 -5 14 -24 16 -124 15 -65 0 -124 -3 -130 -6z"/>
<path d="M3421 1921 c-13 -24 9 -57 33 -48 23 9 31 34 16 52 -17 20 -37 19
-49 -4z"/>
<path d="M1157 1674 c-4 -4 -7 -83 -7 -176 0 -147 2 -169 16 -175 37 -14 49
10 54 106 l5 93 38 -67 c36 -62 40 -66 70 -63 28 3 36 11 67 67 l35 64 5 -93
c4 -74 9 -95 23 -104 12 -8 22 -8 35 0 15 10 17 31 20 169 3 168 -1 185 -44
185 -26 0 -50 -33 -105 -141 -19 -36 -35 -57 -40 -52 -5 5 -33 49 -62 99 -41
70 -58 90 -78 92 -13 2 -28 0 -32 -4z"/>
<path d="M1580 1665 c-17 -21 -10 -221 10 -260 51 -100 214 -100 256 1 11 25
14 66 12 152 l-3 117 -30 0 -30 0 -10 -125 c-9 -118 -11 -125 -35 -137 -30
-15 -59 -8 -82 19 -15 17 -18 40 -18 128 0 89 -3 109 -16 114 -25 10 -41 7
-54 -9z"/>
<path d="M1978 1664 c-28 -15 -58 -61 -58 -88 0 -49 27 -70 134 -108 21 -7 44
-20 49 -30 28 -44 -66 -68 -109 -27 -39 37 -96 5 -66 -36 36 -50 149 -66 210
-30 43 26 59 79 38 129 -13 31 -22 37 -80 55 -96 30 -109 38 -96 61 12 22 78
28 97 9 18 -18 58 -7 61 18 7 51 -115 83 -180 47z"/>
<path d="M2240 1659 c-7 -12 -9 -51 -6 -102 3 -45 5 -114 5 -154 1 -63 3 -72
21 -78 35 -11 49 11 52 83 l3 67 55 0 55 0 3 -65 c4 -86 28 -113 66 -74 13 13
16 43 16 168 0 168 -5 184 -55 172 -23 -6 -25 -11 -25 -66 l0 -60 -60 0 -60 0
0 53 c0 29 -5 58 -12 65 -18 18 -46 14 -58 -9z"/>
<path d="M2554 1667 c-2 -7 -3 -84 -2 -171 3 -138 5 -160 20 -170 27 -16 42 7
48 71 l5 57 40 -58 c42 -62 69 -79 98 -64 24 12 22 23 -18 75 -32 42 -37 63
-15 63 5 0 12 -9 15 -21 10 -29 63 -87 96 -105 39 -20 113 -18 157 5 83 42
113 168 59 250 -34 52 -66 72 -121 78 -58 7 -109 -11 -142 -50 -19 -22 -29
-28 -32 -18 -8 25 -40 50 -79 60 -53 15 -123 14 -129 -2z m130 -83 c19 -18 19
-20 6 -45 -7 -12 -21 -19 -40 -19 -28 0 -30 2 -30 40 0 36 3 40 24 40 14 0 32
-7 40 -16z m271 2 c62 -26 74 -94 27 -147 -22 -24 -36 -31 -65 -31 -70 0 -102
39 -95 113 2 25 12 39 37 56 40 27 50 28 96 9z"/>
<path d="M3235 1666 c-37 -16 -92 -77 -101 -112 -12 -48 2 -121 30 -159 40
-52 78 -68 148 -63 70 5 104 27 136 88 29 57 28 109 -3 169 -39 77 -132 111
-210 77z m115 -88 c44 -30 55 -66 36 -112 -21 -51 -71 -72 -120 -52 -41 17
-56 42 -56 93 0 46 7 57 45 77 40 21 56 20 95 -6z"/>
<path d="M3522 1668 c-15 -15 -17 -300 -2 -329 12 -22 42 -25 58 -6 6 7 12 51
14 97 l3 85 35 -60 c54 -91 87 -88 140 14 l29 56 1 -91 c0 -99 11 -122 50
-109 19 6 20 14 20 175 0 108 -4 171 -11 175 -29 19 -58 -7 -110 -100 -29 -52
-57 -91 -61 -87 -5 5 -30 49 -56 98 -38 72 -52 90 -72 92 -14 2 -31 -3 -38
-10z"/>
<path d="M1880 1070 c0 -73 2 -80 20 -80 16 0 20 7 20 30 0 27 3 30 30 30 20
0 30 5 30 15 0 10 -10 15 -30 15 -25 0 -30 4 -30 25 0 23 4 25 45 25 25 0 45
5 45 10 0 6 -28 10 -65 10 l-65 0 0 -80z"/>
<path d="M2103 1073 c-26 -66 -28 -79 -15 -82 8 -1 19 4 24 13 12 22 88 23 88
1 0 -8 9 -15 20 -15 11 0 20 2 20 5 0 3 -14 39 -32 80 -26 60 -37 75 -54 75
-17 0 -27 -15 -51 -77z m77 -10 c0 -7 -11 -13 -25 -13 -29 0 -29 0 -13 35 11
25 13 26 25 9 7 -10 13 -24 13 -31z"/>
<path d="M2330 1070 c0 -64 3 -80 15 -80 9 0 15 9 15 25 0 32 31 34 45 3 6
-13 20 -24 33 -26 23 -4 23 -3 6 22 -15 25 -15 28 0 45 41 45 8 91 -65 91
l-49 0 0 -80z m90 45 c10 -12 10 -18 0 -30 -27 -32 -71 -8 -56 30 3 8 14 15
24 15 11 0 25 -7 32 -15z"/>
<path d="M2560 1070 c0 -63 3 -80 14 -80 11 0 16 15 18 53 l3 52 20 -32 c10
-18 22 -33 25 -33 3 0 14 14 25 30 11 16 23 30 28 30 4 0 7 -22 7 -50 0 -38 4
-50 15 -50 12 0 15 16 15 80 0 72 -2 80 -19 80 -11 0 -31 -13 -44 -30 l-25
-30 -26 30 c-44 52 -56 41 -56 -50z"/>
<path d="M2830 1070 l0 -80 60 0 c47 0 60 3 60 15 0 11 -11 15 -40 15 -33 0
-40 3 -40 20 0 16 7 20 30 20 40 0 38 18 -2 22 -25 2 -33 8 -33 23 0 16 8 21
43 23 64 5 50 22 -18 22 l-60 0 0 -80z"/>
<path d="M3050 1070 c0 -64 3 -80 15 -80 9 0 15 9 15 25 0 18 5 25 18 25 10 0
25 -11 32 -25 7 -14 22 -25 32 -25 22 0 22 4 3 34 -14 21 -14 24 0 36 18 15
20 61 3 78 -7 7 -36 12 -65 12 l-53 0 0 -80z m81 50 c36 -20 17 -50 -32 -50
-13 0 -19 7 -19 23 0 38 15 46 51 27z"/>
<path d="M1633 1103 c-7 -3 -13 -15 -13 -28 0 -24 16 -35 38 -28 6 3 12 15 12
28 0 24 -16 35 -37 28z"/>
<path d="M3366 1083 c-8 -20 19 -44 40 -36 8 3 14 16 14 29 0 19 -5 24 -24 24
-13 0 -27 -8 -30 -17z"/>
</g>
</svg>
